<?xml version="1.0" encoding="UTF-8"?>
<!--Generator: Apple Native CoreSVG 232.5-->
<!DOCTYPE svg
PUBLIC "-//W3C//DTD SVG 1.1//EN"
       "http://www.w3.org/Graphics/SVG/1.1/DTD/svg11.dtd">
<svg version="1.1" xmlns="http://www.w3.org/2000/svg" xmlns:xlink="http://www.w3.org/1999/xlink" width="187.842" height="144.482">
 <g>
  <rect height="144.482" opacity="0" width="187.842" x="0" y="0"/>
  <path d="M98.4375 129.59C102.783 129.59 106.836 127.539 114.941 127.539C123.096 127.539 125.391 129.59 131.543 129.59C140.869 129.59 145.85 125.83 145.85 119.629C145.85 108.789 133.447 101.416 114.844 101.416C105.615 101.416 101.465 102.246 96.2891 103.564L89.5996 88.2324C82.8125 73.1445 71.9238 63.8184 56.9336 63.8184L49.5605 63.8184C47.168 63.8184 45.6055 62.7441 45.6055 60.498C45.6055 56.7383 50.7812 55.8105 56.3477 55.8105C74.6582 55.8105 88.0859 65.8691 96.3867 86.084L100.684 96.6309C104.883 95.752 109.521 95.3125 114.209 95.3125C117.92 95.3125 120.996 95.5566 124.609 96.0449C128.418 93.2617 132.715 90.1855 138.867 86.7188C145.85 91.9922 154.443 95.2148 163.086 95.2148C180.176 95.2148 187.842 91.4062 187.842 75.5371C187.842 55.3711 172.803 40.332 154.395 40.7715L137.793 18.2617C128.662 5.9082 117.139 0 105.859 0C96.6797 0 83.3984 5.27344 83.3984 12.5977C83.3984 17.5781 93.3594 24.3652 101.318 29.1504L137.646 50.9766C134.18 54.3945 131.445 55.957 128.32 55.957C123.633 55.957 118.896 53.418 111.377 48.9258C92.041 37.8906 77.1484 27.1484 57.0801 27.1484C36.1328 27.1484 20.2637 39.0625 11.8164 62.1094C5.07812 62.207 0 66.5039 0 73.0469C0 80.3223 5.76172 84.7656 13.7207 84.8633C22.7539 97.6074 37.5488 102.881 55.6152 102.881C56.4941 102.881 57.4219 102.832 58.3984 102.832L83.6914 123.291C89.7461 128.467 93.6523 129.59 98.4375 129.59ZM52.3926 133.984C64.4043 133.984 71.875 131.787 78.0762 127.637L58.4961 111.768C57.6172 111.816 56.543 111.914 55.2246 111.914C52.2949 111.914 47.1191 110.986 41.9434 110.986C34.9609 110.986 30.8594 114.648 30.8594 120.117C30.8594 128.467 39.1113 133.984 52.3926 133.984ZM161.377 72.2656C158.643 72.2656 156.445 69.9707 156.445 67.2852C156.445 64.502 158.691 62.1094 161.426 62.1094C164.16 62.1094 166.357 64.3066 166.357 66.9922C166.357 69.7266 164.111 72.2656 161.377 72.2656Z" fill="#5e5ce6"/>
 </g>
</svg>
